<svg aria-hidden="true" style="position:absolute;width:0;height:0;overflow:hidden" xmlns="http://www.w3.org/2000/svg">
  <defs>
    <symbol id="untitled" viewBox="0 0 45 32">
      <path fill="#4f4f4f" style="fill:var(--color1, #4f4f4f)" d="M38.261 28.45 30.98 18.402a12.403 12.403 0 0 0 2.389-4.197c.07-.21.127-.421.182-.632l.037-.14c.101-.378-.103-.772-.458-.88-.353-.109-.723.11-.824.488l-.039.146c-.047.179-.094.359-.154.537a10.983 10.983 0 0 1-1.965 3.529l-4.111-5.674a4.303 4.303 0 0 0 .054-2.906 4.03 4.03 0 0 0-1.425-1.975l1.379-3.125c.157-.355.014-.78-.319-.947s-.73-.015-.887.34l-1.38 3.127a3.595 3.595 0 0 0-1.014-.153c-1.5 0-2.88.932-3.52 2.376a4.322 4.322 0 0 0-.133 3.152c.012.037.033.068.046.104L6.543 28.369a.744.744 0 0 0 .115.999.642.642 0 0 0 .41.151.653.653 0 0 0 .526-.273l7.25-9.905c1.098 1.019 2.336 1.812 3.705 2.329 1.282.485 2.592.715 3.882.715 2.796 0 5.487-1.088 7.58-2.997l7.196 9.931a.64.64 0 0 0 .936.127.744.744 0 0 0 .12-.998zm-19.268-8.119c-1.233-.466-2.345-1.184-3.33-2.11l3.92-5.356c.337.388.746.708 1.213.939.52.263 1.073.391 1.64.391 1.094 0 2.12-.5 2.846-1.329l3.911 5.397c-2.71 2.505-6.581 3.435-10.202 2.066z"/>
    </symbol>
    <symbol id="untitled1" viewBox="0 0 45 32">
      <path fill="#4f4f4f" style="fill:var(--color1, #4f4f4f)" d="m25.139 2.431-9.97 7.471H7.681v12.095h7.488l9.97 7.471V2.431zm7.135 3.546c-.148.009-.29.068-.403.168s-.192.235-.225.386c-.033.151-.017.308.044.449s.164.257.295.331c2.088 1.236 3.766 4.598 3.766 8.638s-1.677 7.391-3.766 8.627c-.157.095-.271.25-.317.432s-.022.376.069.539c.091.163.24.282.414.332s.361.025.519-.069c2.709-1.603 4.45-5.424 4.45-9.861s-1.742-8.269-4.45-9.872a.667.667 0 0 0-.396-.1zm-3.573 2.846c-.149.007-.292.064-.407.164s-.195.235-.229.386c-.034.151-.019.309.041.451s.164.259.295.334c1.286.79 2.407 3.049 2.407 5.792s-1.121 4.991-2.407 5.781a.698.698 0 0 0-.32.436.729.729 0 0 0 .251.752.683.683 0 0 0 .511.138.666.666 0 0 0 .254-.093c1.912-1.175 3.081-3.889 3.081-7.015s-1.169-5.851-3.081-7.026a.667.667 0 0 0-.396-.1z"/>
    </symbol>
    <symbol id="untitled2" viewBox="0 0 45 32">
      <path fill="#4f4f4f" style="fill:var(--color1, #4f4f4f)" d="M22.4 3.692c-5.49 0-10.527 1.983-14.457 5.182a.76.76 0 0 0-.126 1.012.638.638 0 0 0 .94.135c3.703-3.015 8.451-4.89 13.641-4.89s9.938 1.875 13.641 4.89a.638.638 0 0 0 .94-.135.76.76 0 0 0-.126-1.012c-3.929-3.2-8.967-5.182-14.457-5.182zm0 6.835c-3.934 0-7.602 1.281-10.453 3.755-.079.055-.146.127-.197.211s-.086.18-.1.279a.771.771 0 0 0 .14.566.642.642 0 0 0 .485.267.62.62 0 0 0 .275-.047.673.673 0 0 0 .234-.163c2.591-2.248 5.953-3.429 9.617-3.429s7.026 1.181 9.617 3.429a.652.652 0 0 0 .509.21c.094-.005.185-.032.269-.078s.157-.11.216-.189a.746.746 0 0 0 .14-.566.71.71 0 0 0-.297-.49c-2.851-2.474-6.519-3.755-10.453-3.755zm0 6.475c-2.402 0-4.684.809-6.439 2.305a.765.765 0 0 0-.108 1.016.64.64 0 0 0 .944.12c1.498-1.277 3.484-2.001 5.603-2.001s4.105.724 5.603 2.001c.14.118.318.172.495.15s.338-.119.449-.27a.763.763 0 0 0-.108-1.016c-1.755-1.495-4.037-2.305-6.439-2.305zm0 6.835c-1.108 0-2.007.966-2.007 2.158s.899 2.158 2.007 2.158 2.007-.966 2.007-2.158-.899-2.158-2.007-2.158z"/>
    </symbol>
    <symbol id="untitled3" viewBox="0 0 45 32">
      <path fill="#4f4f4f" style="fill:var(--color1, #4f4f4f)" d="M22.4 8.392c-3.976 0-7.212 3.402-7.212 7.584s3.236 7.584 7.212 7.584 7.212-3.402 7.212-7.584c0-4.182-3.236-7.584-7.212-7.584zM22.4 7.125a.465.465 0 0 0 .452-.475V1.645c0-.262-.202-.475-.452-.475s-.452.213-.452.475V6.65c0 .262.202.475.452.475zM22.4 24.825a.465.465 0 0 0-.452.475v5.006c0 .262.202.475.452.475s.452-.213.452-.475v-5.005a.464.464 0 0 0-.452-.475zM15.81 9.717a.438.438 0 0 0 .639 0 .492.492 0 0 0 0-.672l-3.366-3.539c-.177-.186-.462-.186-.639 0s-.177.486 0 .672l3.366 3.539zM28.991 22.234c-.177-.186-.462-.186-.639 0s-.177.486 0 .672l3.366 3.539a.438.438 0 0 0 .638 0 .492.492 0 0 0 0-.672l-3.366-3.539zM28.671 9.856a.44.44 0 0 0 .319-.139l3.366-3.539c.177-.186.177-.486 0-.672s-.462-.186-.639 0l-3.366 3.539a.492.492 0 0 0 0 .672.44.44 0 0 0 .32.139zM15.81 22.234l-3.366 3.539a.492.492 0 0 0 0 .672.438.438 0 0 0 .638 0l3.366-3.539c.177-.186.177-.486 0-.672s-.463-.186-.639 0zM36.028 15.5h-4.76c-.249 0-.452.213-.452.475s.202.475.452.475h4.76c.249 0 .452-.213.452-.475s-.202-.475-.452-.475zM13.984 15.975a.464.464 0 0 0-.452-.475h-4.76c-.249 0-.452.213-.452.475s.202.475.452.475h4.76c.25 0 .452-.212.452-.475z"/>
    </symbol>
    <symbol id="untitled4" viewBox="0 0 39 32">
      <path fill="#e7f2f2" style="fill:var(--color2, #e7f2f2)" d="M16.778 0C9.897.483.005 1.581 0 15.052V32h15.355V13.867h-5.099c-.323-4.842 3.666-6.092 8.004-7.052L16.778 0zm20.573 0C30.47.483 20.578 1.581 20.573 15.052V32h15.356V13.867H30.83c-.323-4.842 3.666-6.092 8.004-7.052L37.352 0z"/>
    </symbol>
    <symbol id="facebook" viewBox="0 0 32 32">
      <path fill="#4f4f4f" style="fill:var(--color1, #4f4f4f)" d="M17.778 13.438h4.889v4.72h-4.889v11.013h-4.889V18.158H8v-4.72h4.889v-1.974c0-1.871.61-4.234 1.822-5.525 1.212-1.295 2.726-1.94 4.54-1.94h3.416v4.72h-3.422c-.811 0-1.467.632-1.467 1.414v3.305z"/>
    </symbol>
    <symbol id="instagram" viewBox="0 0 32 32">
      <path fill="#4f4f4f" style="fill:var(--color1, #4f4f4f)" d="M24 3.999H8c-2.267 0-4 1.722-4 3.975v15.899c0 2.252 1.733 3.975 4 3.975h16c2.267 0 4-1.722 4-3.975V7.974c0-2.252-1.733-3.975-4-3.975zm-8 7.949c2.267 0 4 1.722 4 3.975s-1.733 3.975-4 3.975-4-1.722-4-3.975c0-2.252 1.733-3.975 4-3.975zm5.067-2.65c0-.927.8-1.59 1.6-1.59s1.6.795 1.6 1.59-.667 1.59-1.6 1.59-1.6-.662-1.6-1.59zM24 25.197H8c-.8 0-1.333-.53-1.333-1.325v-7.949h2.667c0 3.71 2.933 6.625 6.667 6.625s6.667-2.915 6.667-6.625h2.667v7.949c0 .795-.533 1.325-1.333 1.325z"/>
    </symbol>
    <symbol id="logo" viewBox="0 0 191 32">
      <path stroke-width="2.37" d="M8.484 24.192c-3.257 0-5.481-2.768-5.481-6.371 0-3.641 2.285-6.424 5.535-6.424 1.433 0 2.943.539 4.101 1.435l1.303-2.053c-1.51-1.307-3.625-2.029-5.63-2.029-4.726 0-8.311 3.938-8.311 9.137 0 5.1 3.472 8.987 8.208 8.987 2.021 0 4.269-.715 5.756-2l-1.326-2.106c-1.103.845-2.668 1.423-4.156 1.423h.002zm21.942-9.716c0-3.174-2.13-5.484-5.792-5.484H18.8v17.627h2.911v-6.608h2.417l3.502 6.615h3.447l-3.978-7.041c2.094-.813 3.328-2.706 3.328-5.108h-.002zm9.944-5.484-5.902 17.621h3.037l1.371-4.427h6.277l1.387 4.427h3.195L43.752 8.996l-3.383-.003zm24.912 2.181v-2.17H53.569v2.563h7.996L53.28 24.49v2.136h12.127v-2.594h-8.44l8.343-12.855-.028-.005zm11.262 5.202-4.042-7.373h-3.379l5.886 10.286v7.33h2.927v-7.346l6-10.279h-3.163l-4.228 7.383zm20.325.921c1.277-.706 2.005-1.984 2.005-3.721 0-2.887-1.989-4.571-5.304-4.571h-5.498v17.619h6.419c3.25 0 5.417-2.069 5.417-4.988 0-2.233-1.293-3.822-3.072-4.339h.032zm13.083-8.293-5.902 17.619h3.033l1.374-4.427h6.274l1.391 4.427h3.201l-5.971-17.619h-3.401zm23.419 8.293c1.281-.706 2.017-1.984 2.017-3.721 0-2.887-1.973-4.571-5.304-4.571h-5.498v17.619h6.436c3.25 0 5.433-2.069 5.433-4.988 0-2.233-1.293-3.822-3.055-4.339h-.028zm13.793-.921-4.026-7.372h-3.396l5.886 10.286v7.335h2.935v-7.351l5.983-10.27h-3.154l-4.236 7.373.008-.002zm-19.665-4.788h2.232c1.633 0 2.744.661 2.744 2.281 0 1.679-1.147 2.47-2.603 2.47h-2.377v-4.751h.005zm3.097 12.437h-3.099v-5.213h2.889c1.854 0 3.072.834 3.072 2.614s-1.218 2.598-2.866 2.598h.004zm-21.372-4.326 2.361-7.58 2.393 7.57h-4.754v.01zm-18.229-8.111h2.231c1.633 0 2.742.661 2.742 2.281 0 1.679-1.148 2.47-2.597 2.47h-2.377v-4.751zm3.096 12.437h-3.088v-5.213h2.894c1.859 0 3.072.834 3.072 2.614s-1.213 2.598-2.862 2.598h-.016zm-54.442-4.326 2.361-7.58 2.393 7.57h-4.754v.01zm-15.395-2.293h-2.539v-5.806h2.539c1.952 0 3.218.983 3.218 2.919 0 1.849-1.148 2.884-3.218 2.884v.003zM181.089 4.772c-1.189-.401-1.656-1.267-2.331-2.213a6.077 6.077 0 0 0-2.94-2.197c.559 1.796-.511 3.737-2.317 4.266a13.75 13.75 0 0 0-7.831 5.551 13.555 13.555 0 0 0-2.24 9.285 13.6 13.6 0 0 0 4.45 8.466c2.463 2.198 5.644 3.439 8.956 3.495s6.534-1.077 9.071-3.19 4.22-5.064 4.737-8.311a13.544 13.544 0 0 0-1.919-9.355 13.728 13.728 0 0 0-7.636-5.812l-.001.016zm-4.007 21.863a6.208 6.208 0 0 1-4.373-1.797c-1.159-1.15-1.811-2.711-1.811-4.338s.652-3.188 1.811-4.338c1.16-1.15 2.733-1.797 4.373-1.797s3.214.646 4.373 1.797c1.16 1.151 1.812 2.711 1.812 4.338s-.652 3.188-1.812 4.338a6.207 6.207 0 0 1-4.373 1.797z"/>
    </symbol>
    <symbol id="twitter" viewBox="0 0 32 32">
      <path fill="#4f4f4f" style="fill:var(--color1, #4f4f4f)" d="M27.228 8.9c1.317-.765 2.188-1.809 2.615-3.138a14.65 14.65 0 0 1-3.831 1.328c-1.145-1.166-2.596-1.759-4.335-1.759-1.7 0-3.135.565-4.307 1.663-.566.522-1.013 1.147-1.315 1.838s-.451 1.433-.439 2.181c0 .477.064.902.191 1.263-5.012-.162-9.161-2.13-12.43-5.919-.554.927-.831 1.871-.831 2.848 0 2.007.895 3.597 2.681 4.765-1.018-.082-1.916-.325-2.681-.725 0 1.433.445 2.63 1.336 3.684a5.966 5.966 0 0 0 3.446 1.992 6.789 6.789 0 0 1-1.595.182c-.508 0-.869-.04-1.082-.128.375 1.168 1.082 2.115 2.104 2.84a6.166 6.166 0 0 0 3.507 1.146c-2.171 1.612-4.652 2.41-7.46 2.41-.688 0-1.175-.009-1.47-.059 2.765 1.7 5.844 2.544 9.249 2.544 3.486 0 6.565-.836 9.246-2.508 2.681-1.663 4.659-3.715 5.93-6.13a15.901 15.901 0 0 0 1.91-7.546v-.722a12.322 12.322 0 0 0 2.998-2.963c-1.097.45-2.254.758-3.438.915z"/>
    </symbol>
  </defs>
</svg>
